<svg viewBox="0 0 100 100" fill="none" xmlns="http://www.w3.org/2000/svg">
  <!-- Orange background circle -->
  <circle cx="50" cy="50" r="48" fill="#FF6B35" />
  <!-- Chef Hat - Top puff (white) -->
  <circle cx="38" cy="38" r="9" fill="#FFFFFF" />
  <circle cx="50" cy="33" r="11" fill="#FFFFFF" />
  <circle cx="62" cy="38" r="9" fill="#FFFFFF" />
  <circle cx="44" cy="31" r="8" fill="#FFF5EE" />
  <circle cx="56" cy="31" r="8" fill="#FFF5EE" />
  <!-- Chef Hat - Main body (white) -->
  <ellipse cx="50" cy="48" rx="24" ry="13" fill="#FFFFFF" />
  <!-- Chef Hat - Band -->
  <rect x="26" y="47" width="48" height="8" fill="#D2691E" rx="2" />
  <!-- Pleats -->
  <line x1="34" y1="49" x2="34" y2="53" stroke="#B8621B" stroke-width="1.5" stroke-linecap="round" />
  <line x1="42" y1="49" x2="42" y2="53" stroke="#B8621B" stroke-width="1.5" stroke-linecap="round" />
  <line x1="50" y1="49" x2="50" y2="53" stroke="#B8621B" stroke-width="1.5" stroke-linecap="round" />
  <line x1="58" y1="49" x2="58" y2="53" stroke="#B8621B" stroke-width="1.5" stroke-linecap="round" />
  <line x1="66" y1="49" x2="66" y2="53" stroke="#B8621B" stroke-width="1.5" stroke-linecap="round" />
  <!-- Star -->
  <path d="M 50 60 L 51.5 64 L 55 64 L 52 66.5 L 53 70 L 50 67.5 L 47 70 L 48 66.5 L 45 64 L 48.5 64 Z" fill="#FFF5EE" />
</svg>
